<?xml version="1.0" encoding="UTF-8"?><svg id="Layer_1" xmlns="http://www.w3.org/2000/svg" viewBox="0 0 744.52 213.47"><path d="M171.4,67.79c-.8-1.4-1-2.6-.6-3.2l10.2-12.6c.6-1,2.6-.2,4.2,1.4s2.4,3.6,1.8,4.6c0,.2-4.6,7.8-11.8,19.6,2.2,2.4,4.2,5.4,6,9,1,2,.8,3.4-.8,3.2-1.4,0-3.4-1.8-4.6-3.6-1-1.8-2-3.4-3-4.8-7.4,11.8-17,27-27.2,42.2,29-3.4,56-15.8,74.2-31.6,8.2-7,14.4-14.6,18.6-22.6,4.2-7.8,6-15.6,5.2-23.4-.6-6.4-3.2-12.6-8-18.2-13.2-15.2-46.8-22.2-84.6-20.8-37.2,1.4-78.4,11.6-108.6,30.6-13.8,8.6-25.6,20.8-31.6,33.6-2.6,5.8-4.2,11.6-4.2,17.2,0,5.2,1.2,10.2,4,14.6,3.2,5.2,9,10,17.8,14,1.8.8,3.6,3,4,4.6.4,1.8-.8,2.6-2.6,1.8-11.4-5.4-19.2-12.4-24.2-20-3.8-6.4-5.6-12.8-5.6-19.4,0-6.2,1.8-12.4,4.6-18.4,6.2-13.2,18.2-25.8,32.4-34.6C67.4,11.79,109,1.59,146.8.19c40-1.6,76.2,7,92,25.2,6.8,7.8,10.4,16.2,11.4,24.4.8,8.6-1.2,17.2-5.6,25.4-4.2,8.2-10.8,16-19,23.2-19.2,16.6-47.6,29.4-77.8,32.4-2.6.4-5.2.6-7.6.8-22.2,32.2-46.6,63.4-58.8,64.8-6,.6-9-3-9.8-10-1.2-10,7.6-34.4,21-58.4.6-1,1-2,1.6-3-.8-.4-1.4-.8-2.2-1.2-6.4-3.4-11-7.8-14.2-12.6h-.2c-3-4.8-4.6-9.4-5.2-14-.6-5.2.6-10,2.6-13.8.6-1,2.4-.6,4.2,1,1.6,1.6,2.6,3.8,2,4.8-1.8,3.2-2.6,7.4-2.2,11.8.2,3.2,1.4,6.4,3.2,9.2l.2.2c1.8,2.6,4.6,5.2,8.8,7.4,1.6,1,3.6,2,5.6,2.8,12.8-21.4,28.8-41.4,44-49.6,9.8-5.2,19.6-6,28.2.6l2.4-3.8ZM129.8,131.79c-11.2,0-20.4-1.4-27.8-3.8-1,2-2.2,3.8-3.2,5.8-12.6,22.8-21.2,45.4-20.8,55.4,11.2-2.6,31.8-28.6,51.8-57.4ZM105.2,122.99c7.8,1.6,17.6,2.4,29.6,1.6,11.8-17.4,23.2-35.2,31.6-48.8-6-3.2-13-2-20.2,2-14,7.6-28.8,25.4-41,45.2Z"/><path d="M248,122.99c-9.4,4.8-20,6-20.6,6-13.6,29.2,40.4,4.4,46.6-6.8.6-1.2,2.6-2.6,4.4-1,1.6,1.6,1.6,2.4,1,3.6-5.6,9.8-36.8,31.4-50.6,23.6-6.8-3.8-11-11.8-9.4-19.6,1-5,4-10.2,8-14.8,4-4.4,8.6-8.6,13-11.8,5.8-4,11.2-6.4,13.4-6,1.8.4,3.4,1.4,4.8,3,2,2.2,2.8,4.8,2.4,7.2-.2,1.8-1,3.6-2,5.6-2.2,4.2-6.2,8.6-11,11ZM233.8,119.79c2.8-.8,5.8-2,9-3.4,4.2-2.2,7.8-6.4,10-10.2.4-.8.6-1.4,1-2.2-2.2,1-4.8,2.6-7.8,4.8-4,3-8.6,6.8-12.2,11Z"/><path d="M286.6,99.79c.6-1,2.6-.4,4.2,1.2,1.8,1.6,2.6,3.8,2,4.8l-7.4,11.8c7-3.4,16.6-6.6,20.6-1.6,1.8,2,1.2,6.6,3.8,6.8,3.8.2,9.4-.6,14.8-2.2,1.2-.4,2.4-1.4,3.6.4,1.4,2,.6,2.6-.6,2.8-5.8,1.8-15.4,3.8-19.6,3.4-5.2-.4-6.8-1.8-11.2-7-3-3.6-20.8,12.2-20.8,12.2-.4.2-10.8,17.8-11.8,19.6-.6,1-2.6.4-4.2-1.2-1.8-1.6-2.6-3.8-2-4.8l28.6-46.2Z"/><path d="M354.59,129.39c-.2,1-1.4,1.2-2.8.4l-.2.4c-7.2,6.2-13.6,11.2-18.6,14.4-6.8,4.2-18.2,5.2-17.6-6.2.2-3,1.6-6.8,3.8-10.6,4-6.6,12.6-17.6,21-17.2,7.8-.2,10.2,3.8,12.2,6.8,7.4-7,15-15.2,22.2-23.8,16.4-19.6,27.6-35.8,33-44.2l4.2-6.4c.6-1,2.4-.6,4.2,1.2,1.6,1.6,2.6,3.6,2,4.8,0,0-1.6,2.6-4.8,7.4-19.6,30.8-93.8,147.8-91,154.4.8,2,0,3-1.6,2.6-1.6-.4-3.6-2.2-4.2-4.2-2.4-5.6,24.2-51.2,49.8-93.4-3.8,4-7.6,7.8-11.4,11.2,0,1.4-.2,2.2-.2,2.4ZM348,121.59c-.4-1.4-1.4-3-4-3-7.2-.4-15.2,9.4-18.6,15-1.6,2.8-2.8,5.4-3.2,7.4,1.2-.6,3-1.6,5.2-3,5-3,11.4-8,18.4-14.2l2.2-2.2Z"/><path d="M400.19,105.39c1-.8,3,0,4.6,1.8,1.6,1.8,2.2,3.8,1.2,4.6-4.4,3.8-11.6,12.4-16,20.8-2.8,5.6-2.6,8.8-.6,9.8,8.2,1.2,30.4-20.4,30.4-20.6.8-.8,2.2-2.4,3.8-.6,1.8,1.8,1,2.4.2,3.2-.2,0-33.4,36-42,21-2.8-5-1.4-11.8,2-18.6,4.4-8.6,11.8-17.6,16.4-21.4ZM412.59,99.59c-.8,1-2.8.2-4.4-1.4-1.6-1.8-2.4-3.8-1.6-4.8l11.2-12.8c.8-1,2.6-.2,4.4,1.4,1.6,1.8,2.2,3.8,1.6,4.8l-11.2,12.8Z"/><path d="M426.19,109.79c.6-1,2.6-.6,4.2,1,1.8,1.6,2.6,3.8,2,4.8l-5,9c10.8-9,22.6-17.8,27-16.6h.4c6,1.8,7,5.6,5.6,10.6-.6,2.2-2,4.8-3.4,7.8-2.6,5.2-5.6,11-5.6,11,6.4,4.2,28-14.8,28.2-14.8.6-.8,2.8-3.4,4.4-1.6,1.8,1.6.6,2-.2,3,0,0-21.8,25.8-32.2,19-9-5.8-4.6-14.6-.8-22.4.8-1.6,1.6-3.2,2.2-4.8-11.4,6-38,31.4-38.8,32.2-.6.8-2.4.2-4-1.2-1.6-1.8-2.6-3.8-2-4.8l18-32.2Z"/><path d="M501.79,122.99c-9.4,4.8-20,6-20.6,6-13.6,29.2,40.4,4.4,46.6-6.8.6-1.2,2.6-2.6,4.4-1,1.6,1.6,1.6,2.4,1,3.6-5.6,9.8-36.8,31.4-50.6,23.6-6.8-3.8-11-11.8-9.4-19.6,1-5,4-10.2,8-14.8,4-4.4,8.6-8.6,13-11.8,5.8-4,11.2-6.4,13.4-6,1.8.4,3.4,1.4,4.8,3,2,2.2,2.8,4.8,2.4,7.2-.2,1.8-1,3.6-2,5.6-2.2,4.2-6.2,8.6-11,11ZM487.59,119.79c2.8-.8,5.8-2,9-3.4,4.2-2.2,7.8-6.4,10-10.2.4-.8.6-1.4,1-2.2-2.2,1-4.8,2.6-7.8,4.8-4,3-8.6,6.8-12.2,11Z"/><path d="M540.39,99.79c.6-1,2.6-.4,4.2,1.2,1.8,1.6,2.6,3.8,2,4.8l-7.4,11.8c7-3.4,16.6-6.6,20.6-1.6,1.8,2,1.2,6.6,3.8,6.8,3.8.2,9.4-.6,14.8-2.2,1.2-.4,2.4-1.4,3.6.4,1.4,2,.6,2.6-.6,2.8-5.8,1.8-15.4,3.8-19.6,3.4-5.2-.4-6.8-1.8-11.2-7-3-3.6-20.8,12.2-20.8,12.2-.4.2-10.8,17.8-11.8,19.6-.6,1-2.6.4-4.2-1.2-1.8-1.6-2.6-3.8-2-4.8l28.6-46.2Z"/><path d="M684.79,160.39c1.6.2,3.6,1.8,4.6,3.8,1,1.8.8,3.2-.8,3.2-42.4-3.6-73.6-2.8-96.2.4-13.4,22.6-28.4,44.4-35.2,44.4-9.2-.2-17.2-5.2-21.2-12.2-2.2-4-3-8.6-1.6-13,1.4-4,4.4-8,9.8-11.8,8.2-5.8,21.8-11,42.6-14.2,5.2-8.8,10.2-17.6,14.4-25.2-6.2,5.4-12.6,9.6-16.8,9.2-1.8-.2-3.2-.6-4.6-1.4-4-2.2-6.2-5.6-6.2-9.8-.2-2.4.6-5.4,2-8.6,2.6-6.4,7.8-14.2,14.2-21.8.8-1,2.8-.2,4.4,1.4,1.6,1.8,2.4,3.8,1.6,4.8-6.4,7.4-11.4,15-14,21.2-.4.8-.8,5.2.4,6,13.8,3,37.4-31,35.8-32.2v.2c.8-1,2.4-.4,4.2,1.2,1.6,1.6,2.6,3.6,2,4.6l-4.4,7.8-.2.2c0,.2-10.2,19.8-22.4,41.2,21.8-2.4,50.6-2.6,87.6.6ZM581.79,169.59c-15,3.2-25.4,7.4-32,12.2-5,3.4-7.8,7.2-9,10.6-1,3.2-.6,5.8.4,7.8,1.8,2.8,6.2,4.8,11.8,5,5.4,0,17.2-16.4,28.8-35.6Z"/><path d="M660.79,117.59c.8,2,.2,3.2-1.4,2.8s-3.6-2.2-4.4-4c-4-3.8-13.8.8-17.4,3.8-7.4,6-11.6,13.2-13.8,22.4,7-2,25.2-23.2,25.2-23.2.8-.8,2.6-.2,4.4,1.6,1.4,1.6,2.2,3.4,1.6,4.4-.4,1-2.8,6.2-1.6,11.8.8,4.8,26.8-17,27.2-17.2.8-.8,2.4-1.8,4-.2,1.6,1.8,1.4,3.4.6,4.2-13.2,11.8-21,18.8-26.4,21.6-9.2,4.8-16.2,2-16-7.8-7.2,6.8-14.6,13-19,11-1.6-.6-2.8-1.8-4-3-2-2.6-2.8-5.4-2.4-8.4.2-2.4,1-5,2.2-7.6,2.6-5.6,7.2-11.8,12.4-16,9-7.4,25.4-7.8,28.8,3.8Z"/><path d="M685.78,109.79c.6-1,2.6-.6,4.2,1,1.8,1.6,2.6,3.8,2,4.8l-5,9c10.8-9,22.6-17.8,27-16.6h.4c6,1.8,7,5.6,5.6,10.6-.6,2.2-2,4.8-3.4,7.8-2.6,5.2-5.6,11-5.6,11,6.4,4.2,28-14.8,28.2-14.8.6-.8,2.8-3.4,4.4-1.6,1.8,1.6.6,2-.2,3,0,0-21.8,25.8-32.2,19-9-5.8-4.6-14.6-.8-22.4.8-1.6,1.6-3.2,2.2-4.8-11.4,6-38,31.4-38.8,32.2-.6.8-2.4.2-4-1.2-1.6-1.8-2.6-3.8-2-4.8l18-32.2Z"/></svg>